<?xml version="1.0" encoding="UTF-8" standalone="no"?>
<svg
   xmlns:dc="http://purl.org/dc/elements/1.1/"
   xmlns:cc="http://creativecommons.org/ns#"
   xmlns:rdf="http://www.w3.org/1999/02/22-rdf-syntax-ns#"
   xmlns:svg="http://www.w3.org/2000/svg"
   xmlns="http://www.w3.org/2000/svg"
   width="181.25873mm"
   height="78.047348mm"
   viewBox="0 0 2740.2895 1179.9284"
   version="1.1"
   id="svg516">
  <defs
     id="defs510" />
  <metadata
     id="metadata513">
    <rdf:RDF>
      <cc:Work
         rdf:about="">
        <dc:format>image/svg+xml</dc:format>
        <dc:type
           rdf:resource="http://purl.org/dc/dcmitype/StillImage" />
        <dc:title></dc:title>
      </cc:Work>
    </rdf:RDF>
  </metadata>
  <g
     transform="translate(1300.5972,514.45817)"
     id="layer1">
    <g
       transform="matrix(0.26458333,0,0,0.26458333,-4820.6138,-3245.4873)"
       id="id32"
       style="visibility:hidden">
      <rect
         style="fill:none;stroke:none"
         id="rect709"
         height="836"
         width="836"
         y="11373"
         x="16926"
         class="BoundingBox" />
      <path
         style="fill:#7030a0;stroke:none"
         id="path711"
         d="m 17344,12190 h -400 v -799 h 799 v 799 z" />
      <path
         style="fill:none;stroke:#000000;stroke-width:35;stroke-linejoin:round"
         id="path713"
         d="m 17344,12190 h -400 v -799 h 799 v 799 z" />
    </g>
    <g
       transform="matrix(0.26458333,0,0,0.26458333,-4820.6138,-3245.4873)"
       id="id33"
       style="visibility:hidden">
      <rect
         style="fill:none;stroke:none"
         id="rect718"
         height="836"
         width="836"
         y="11373"
         x="15337"
         class="BoundingBox" />
      <path
         style="fill:#ff0000;stroke:none"
         id="path720"
         d="m 15755,12190 h -400 v -799 h 799 v 799 z" />
      <path
         style="fill:none;stroke:#000000;stroke-width:35;stroke-linejoin:round"
         id="path722"
         d="m 15755,12190 h -400 v -799 h 799 v 799 z" />
    </g>
    <g
       transform="matrix(0.26458333,0,0,0.26458333,-4820.6138,-3245.4873)"
       id="id34"
       style="visibility:hidden">
      <rect
         style="fill:none;stroke:none"
         id="rect727"
         height="836"
         width="836"
         y="11373"
         x="13748"
         class="BoundingBox" />
      <path
         style="fill:#ff0000;stroke:none"
         id="path729"
         d="m 14166,12190 h -400 v -799 h 799 v 799 z" />
      <path
         style="fill:none;stroke:#000000;stroke-width:35;stroke-linejoin:round"
         id="path731"
         d="m 14166,12190 h -400 v -799 h 799 v 799 z" />
    </g>
    <g
       transform="matrix(0.26458333,0,0,0.26458333,-4820.6138,-3245.4873)"
       id="id35"
       style="visibility:hidden">
      <rect
         style="fill:none;stroke:none"
         id="rect736"
         height="836"
         width="836"
         y="11373"
         x="14537"
         class="BoundingBox" />
      <path
         style="fill:#ff0000;stroke:none"
         id="path738"
         d="m 14955,12190 h -400 v -799 h 799 v 799 z" />
      <path
         style="fill:none;stroke:#000000;stroke-width:35;stroke-linejoin:round"
         id="path740"
         d="m 14955,12190 h -400 v -799 h 799 v 799 z" />
    </g>
    <g
       transform="matrix(0.26458333,0,0,0.26458333,-4820.6138,-3245.4873)"
       id="id36"
       style="visibility:hidden">
      <rect
         style="fill:none;stroke:none"
         id="rect745"
         height="836"
         width="836"
         y="11373"
         x="17715"
         class="BoundingBox" />
      <path
         style="fill:#7030a0;stroke:none"
         id="path747"
         d="m 18133,12190 h -400 v -799 h 799 v 799 z" />
      <path
         style="fill:none;stroke:#000000;stroke-width:35;stroke-linejoin:round"
         id="path749"
         d="m 18133,12190 h -400 v -799 h 799 v 799 z" />
    </g>
    <g
       transform="matrix(0.26458333,0,0,0.26458333,-4820.6138,-3245.4873)"
       id="id37"
       style="visibility:hidden">
      <rect
         style="fill:none;stroke:none"
         id="rect754"
         height="836"
         width="836"
         y="11373"
         x="18515"
         class="BoundingBox" />
      <path
         style="fill:#7030a0;stroke:none"
         id="path756"
         d="m 18933,12190 h -400 v -799 h 799 v 799 z" />
      <path
         style="fill:none;stroke:#000000;stroke-width:35;stroke-linejoin:round"
         id="path758"
         d="m 18933,12190 h -400 v -799 h 799 v 799 z" />
    </g>
    <g
       transform="matrix(0.26458333,0,0,0.26458333,-4820.6138,-3245.4873)"
       id="id38"
       style="visibility:hidden">
      <rect
         style="fill:none;stroke:none"
         id="rect763"
         height="836"
         width="836"
         y="11373"
         x="19304"
         class="BoundingBox" />
      <path
         style="fill:#7030a0;stroke:none"
         id="path765"
         d="m 19722,12190 h -400 v -799 h 799 v 799 z" />
      <path
         style="fill:none;stroke:#000000;stroke-width:35;stroke-linejoin:round"
         id="path767"
         d="m 19722,12190 h -400 v -799 h 799 v 799 z" />
    </g>
    <g
       transform="matrix(0.26458333,0,0,0.26458333,-4820.6138,-3245.4873)"
       id="id39"
       style="visibility:hidden">
      <rect
         style="fill:none;stroke:none"
         id="rect772"
         height="836"
         width="836"
         y="11373"
         x="20102"
         class="BoundingBox" />
      <path
         style="fill:#0070c0;stroke:none"
         id="path774"
         d="m 20520,12190 h -400 v -799 h 799 v 799 z" />
      <path
         style="fill:none;stroke:#000000;stroke-width:35;stroke-linejoin:round"
         id="path776"
         d="m 20520,12190 h -400 v -799 h 799 v 799 z" />
    </g>
    <g
       transform="matrix(0.26458333,0,0,0.26458333,-4820.6138,-3245.4873)"
       id="id40"
       style="visibility:hidden">
      <rect
         style="fill:none;stroke:none"
         id="rect781"
         height="836"
         width="836"
         y="11373"
         x="20891"
         class="BoundingBox" />
      <path
         style="fill:#0070c0;stroke:none"
         id="path783"
         d="m 21309,12190 h -400 v -799 h 799 v 799 z" />
      <path
         style="fill:none;stroke:#000000;stroke-width:35;stroke-linejoin:round"
         id="path785"
         d="m 21309,12190 h -400 v -799 h 799 v 799 z" />
    </g>
    <g
       transform="matrix(0.26458333,0,0,0.26458333,-4820.6138,-3245.4873)"
       id="id41"
       style="visibility:hidden">
      <rect
         style="fill:none;stroke:none"
         id="rect790"
         height="836"
         width="836"
         y="11373"
         x="21687"
         class="BoundingBox" />
      <path
         style="fill:#0070c0;stroke:none"
         id="path792"
         d="m 22105,12190 h -400 v -799 h 799 v 799 z" />
      <path
         style="fill:none;stroke:#000000;stroke-width:35;stroke-linejoin:round"
         id="path794"
         d="m 22105,12190 h -400 v -799 h 799 v 799 z" />
    </g>
    <g
       transform="matrix(0.26458333,0,0,0.26458333,-4820.6138,-3245.4873)"
       id="id42"
       style="visibility:hidden">
      <rect
         style="fill:none;stroke:none"
         id="rect799"
         height="836"
         width="836"
         y="11373"
         x="22476"
         class="BoundingBox" />
      <path
         style="fill:#0070c0;stroke:none"
         id="path801"
         d="m 22894,12190 h -400 v -799 h 799 v 799 z" />
      <path
         style="fill:none;stroke:#000000;stroke-width:35;stroke-linejoin:round"
         id="path803"
         d="m 22894,12190 h -400 v -799 h 799 v 799 z" />
    </g>
    <g
       transform="matrix(0.26458333,0,0,0.26458333,-4820.6138,-3245.4873)"
       id="id43"
       style="visibility:hidden">
      <rect
         style="fill:none;stroke:none"
         id="rect808"
         height="855"
         width="1607"
         y="11175"
         x="13827"
         class="BoundingBox" />
      <text
         id="text816"
         class="TextShape">
        <tspan
           style="font-weight:700;font-size:494px;font-family:Calibri, sans-serif"
           id="tspan814"
           font-weight="700"
           font-size="494px"
           class="TextParagraph">
          <tspan
             id="tspan812"
             y="11794"
             x="13827"
             class="TextPosition">
            <tspan
               style="fill:#000000;stroke:none"
               id="tspan810">0</tspan>
          </tspan>
        </tspan>
      </text>
    </g>
    <g
       transform="matrix(0.26458333,0,0,0.26458333,-4820.6138,-3245.4873)"
       id="id44"
       style="visibility:hidden">
      <rect
         style="fill:none;stroke:none"
         id="rect821"
         height="836"
         width="836"
         y="11373"
         x="16137"
         class="BoundingBox" />
      <path
         style="fill:#ff0000;stroke:none"
         id="path823"
         d="m 16555,12190 h -400 v -799 h 799 v 799 z" />
      <path
         style="fill:none;stroke:#000000;stroke-width:35;stroke-linejoin:round"
         id="path825"
         d="m 16555,12190 h -400 v -799 h 799 v 799 z" />
    </g>
    <g
       transform="matrix(0.26458333,0,0,0.26458333,-4820.6138,-3245.4873)"
       id="id45"
       style="visibility:hidden">
      <rect
         style="fill:none;stroke:none"
         id="rect830"
         height="855"
         width="3178"
         y="13938"
         x="13304"
         class="BoundingBox" />
      <text
         id="text838"
         class="TextShape">
        <tspan
           style="font-weight:700;font-size:459px;font-family:'Noto Mono', monospace"
           id="tspan836"
           font-weight="700"
           font-size="459px"
           class="TextParagraph">
          <tspan
             id="tspan834"
             y="14522"
             x="13304"
             class="TextPosition">
            <tspan
               style="fill:#ff0000;stroke:none"
               id="tspan832">points%x(:)</tspan>
          </tspan>
        </tspan>
      </text>
    </g>
    <g
       transform="matrix(0.26458333,0,0,0.26458333,-4820.6138,-3245.4873)"
       id="id46"
       style="visibility:hidden">
      <rect
         style="fill:none;stroke:none"
         id="rect843"
         height="855"
         width="3178"
         y="13938"
         x="16880"
         class="BoundingBox" />
      <text
         id="text851"
         class="TextShape">
        <tspan
           style="font-weight:700;font-size:459px;font-family:'Noto Mono', monospace"
           id="tspan849"
           font-weight="700"
           font-size="459px"
           class="TextParagraph">
          <tspan
             id="tspan847"
             y="14522"
             x="16880"
             class="TextPosition">
            <tspan
               style="fill:#7030a0;stroke:none"
               id="tspan845">points%y(:)</tspan>
          </tspan>
        </tspan>
      </text>
    </g>
    <g
       transform="matrix(0.26458333,0,0,0.26458333,-4820.6138,-3245.4873)"
       id="id47"
       style="visibility:hidden">
      <rect
         style="fill:none;stroke:none"
         id="rect856"
         height="855"
         width="3178"
         y="13938"
         x="20458"
         class="BoundingBox" />
      <text
         id="text864"
         class="TextShape">
        <tspan
           style="font-weight:700;font-size:459px;font-family:'Noto Mono', monospace"
           id="tspan862"
           font-weight="700"
           font-size="459px"
           class="TextParagraph">
          <tspan
             id="tspan860"
             y="14522"
             x="20458"
             class="TextPosition">
            <tspan
               style="fill:#0070c0;stroke:none"
               id="tspan858">points%z(:)</tspan>
          </tspan>
        </tspan>
      </text>
    </g>
    <g
       transform="matrix(0.26458333,0,0,0.26458333,-4820.6138,-3245.4873)"
       id="id48"
       style="visibility:hidden">
      <rect
         style="fill:none;stroke:none"
         id="rect869"
         height="1782"
         width="780"
         y="12191"
         x="14148"
         class="BoundingBox" />
      <path
         style="fill:none;stroke:#000000;stroke-width:71;stroke-linejoin:round"
         id="path871"
         d="m 14891,13936 -650,-1561" />
      <path
         style="fill:#000000;stroke:none"
         id="path873"
         d="m 14165,12191 180,156 -197,82 z" />
    </g>
    <g
       transform="matrix(0.26458333,0,0,0.26458333,-4820.6138,-3245.4873)"
       id="id49"
       style="visibility:hidden">
      <rect
         style="fill:none;stroke:none"
         id="rect878"
         height="1782"
         width="214"
         y="12191"
         x="14841"
         class="BoundingBox" />
      <path
         style="fill:none;stroke:#000000;stroke-width:71;stroke-linejoin:round"
         id="path880"
         d="m 14893,13936 55,-1546" />
      <path
         style="fill:#000000;stroke:none"
         id="path882"
         d="m 14955,12191 99,217 -213,-8 z" />
    </g>
    <g
       transform="matrix(0.26458333,0,0,0.26458333,-4820.6138,-3245.4873)"
       id="id50"
       style="visibility:hidden">
      <rect
         style="fill:none;stroke:none"
         id="rect887"
         height="1782"
         width="901"
         y="12191"
         x="14857"
         class="BoundingBox" />
      <path
         style="fill:none;stroke:#000000;stroke-width:71;stroke-linejoin:round"
         id="path889"
         d="m 14893,13936 774,-1567" />
      <path
         style="fill:#000000;stroke:none"
         id="path891"
         d="m 15755,12191 1,238 -191,-94 z" />
    </g>
    <g
       transform="matrix(0.26458333,0,0,0.26458333,-4820.6138,-3245.4873)"
       id="id51"
       style="visibility:hidden">
      <rect
         style="fill:none;stroke:none"
         id="rect896"
         height="1782"
         width="1699"
         y="12191"
         x="14857"
         class="BoundingBox" />
      <path
         style="fill:none;stroke:#000000;stroke-width:71;stroke-linejoin:round"
         id="path898"
         d="m 14893,13936 1525,-1601" />
      <path
         style="fill:#000000;stroke:none"
         id="path900"
         d="m 16555,12191 -70,228 -154,-147 z" />
    </g>
    <g
       transform="matrix(0.26458333,0,0,0.26458333,-4820.6138,-3245.4873)"
       id="id52"
       style="visibility:hidden">
      <rect
         style="fill:none;stroke:none"
         id="rect905"
         height="1782"
         width="1162"
         y="12191"
         x="17344"
         class="BoundingBox" />
      <path
         style="fill:none;stroke:#000000;stroke-width:71;stroke-linejoin:round"
         id="path907"
         d="m 18469,13936 -38,-60" />
      <path
         style="fill:none;stroke:#000000;stroke-width:71;stroke-linejoin:round"
         id="path909"
         d="m 18392,13817 -38,-60" />
      <path
         style="fill:none;stroke:#000000;stroke-width:71;stroke-linejoin:round"
         id="path911"
         d="m 18315,13697 -38,-59" />
      <path
         style="fill:none;stroke:#000000;stroke-width:71;stroke-linejoin:round"
         id="path913"
         d="m 18238,13578 -38,-60" />
      <path
         style="fill:none;stroke:#000000;stroke-width:71;stroke-linejoin:round"
         id="path915"
         d="m 18161,13459 -38,-60" />
      <path
         style="fill:none;stroke:#000000;stroke-width:71;stroke-linejoin:round"
         id="path917"
         d="m 18084,13339 -38,-59" />
      <path
         style="fill:none;stroke:#000000;stroke-width:71;stroke-linejoin:round"
         id="path919"
         d="m 18007,13220 -38,-60" />
      <path
         style="fill:none;stroke:#000000;stroke-width:71;stroke-linejoin:round"
         id="path921"
         d="m 17930,13101 -38,-60" />
      <path
         style="fill:none;stroke:#000000;stroke-width:71;stroke-linejoin:round"
         id="path923"
         d="m 17853,12981 -38,-59" />
      <path
         style="fill:none;stroke:#000000;stroke-width:71;stroke-linejoin:round"
         id="path925"
         d="m 17777,12862 -39,-60" />
      <path
         style="fill:none;stroke:#000000;stroke-width:71;stroke-linejoin:round"
         id="path927"
         d="m 17700,12743 -39,-60" />
      <path
         style="fill:none;stroke:#000000;stroke-width:71;stroke-linejoin:round"
         id="path929"
         d="m 17623,12623 -39,-59" />
      <path
         style="fill:none;stroke:#000000;stroke-width:71;stroke-linejoin:round"
         id="path931"
         d="m 17546,12504 -39,-60" />
      <path
         style="fill:none;stroke:#000000;stroke-width:71;stroke-linejoin:round"
         id="path933"
         d="m 17469,12384 -17,-26" />
      <path
         style="fill:#000000;stroke:none"
         id="path935"
         d="m 17344,12191 205,121 -179,116 z" />
    </g>
    <g
       transform="matrix(0.26458333,0,0,0.26458333,-4820.6138,-3245.4873)"
       id="id53"
       style="visibility:hidden">
      <rect
         style="fill:none;stroke:none"
         id="rect940"
         height="1782"
         width="438"
         y="12191"
         x="18067"
         class="BoundingBox" />
      <path
         style="fill:none;stroke:#000000;stroke-width:71;stroke-linejoin:round"
         id="path942"
         d="m 18468,13936 -13,-70" />
      <path
         style="fill:none;stroke:#000000;stroke-width:71;stroke-linejoin:round"
         id="path944"
         d="m 18441,13797 -13,-70" />
      <path
         style="fill:none;stroke:#000000;stroke-width:71;stroke-linejoin:round"
         id="path946"
         d="m 18414,13657 -13,-70" />
      <path
         style="fill:none;stroke:#000000;stroke-width:71;stroke-linejoin:round"
         id="path948"
         d="m 18387,13518 -13,-70" />
      <path
         style="fill:none;stroke:#000000;stroke-width:71;stroke-linejoin:round"
         id="path950"
         d="m 18361,13378 -14,-69" />
      <path
         style="fill:none;stroke:#000000;stroke-width:71;stroke-linejoin:round"
         id="path952"
         d="m 18334,13239 -14,-70" />
      <path
         style="fill:none;stroke:#000000;stroke-width:71;stroke-linejoin:round"
         id="path954"
         d="m 18307,13099 -14,-69" />
      <path
         style="fill:none;stroke:#000000;stroke-width:71;stroke-linejoin:round"
         id="path956"
         d="m 18280,12960 -13,-70" />
      <path
         style="fill:none;stroke:#000000;stroke-width:71;stroke-linejoin:round"
         id="path958"
         d="m 18253,12820 -13,-69" />
      <path
         style="fill:none;stroke:#000000;stroke-width:71;stroke-linejoin:round"
         id="path960"
         d="m 18226,12681 -13,-70" />
      <path
         style="fill:none;stroke:#000000;stroke-width:71;stroke-linejoin:round"
         id="path962"
         d="m 18200,12542 -14,-70" />
      <path
         style="fill:none;stroke:#000000;stroke-width:71;stroke-linejoin:round"
         id="path964"
         d="m 18173,12402 -3,-16" />
      <path
         style="fill:#000000;stroke:none"
         id="path966"
         d="m 18132,12191 145,189 -209,40 z" />
    </g>
    <g
       transform="matrix(0.26458333,0,0,0.26458333,-4820.6138,-3245.4873)"
       id="id54"
       style="visibility:hidden">
      <rect
         style="fill:none;stroke:none"
         id="rect971"
         height="1782"
         width="549"
         y="12191"
         x="18433"
         class="BoundingBox" />
      <path
         style="fill:none;stroke:#000000;stroke-width:71;stroke-linejoin:round"
         id="path973"
         d="m 18469,13936 18,-69" />
      <path
         style="fill:none;stroke:#000000;stroke-width:71;stroke-linejoin:round"
         id="path975"
         d="m 18505,13799 19,-69" />
      <path
         style="fill:none;stroke:#000000;stroke-width:71;stroke-linejoin:round"
         id="path977"
         d="m 18542,13661 18,-68" />
      <path
         style="fill:none;stroke:#000000;stroke-width:71;stroke-linejoin:round"
         id="path979"
         d="m 18578,13524 18,-68" />
      <path
         style="fill:none;stroke:#000000;stroke-width:71;stroke-linejoin:round"
         id="path981"
         d="m 18615,13387 18,-69" />
      <path
         style="fill:none;stroke:#000000;stroke-width:71;stroke-linejoin:round"
         id="path983"
         d="m 18651,13250 18,-69" />
      <path
         style="fill:none;stroke:#000000;stroke-width:71;stroke-linejoin:round"
         id="path985"
         d="m 18688,13112 18,-68" />
      <path
         style="fill:none;stroke:#000000;stroke-width:71;stroke-linejoin:round"
         id="path987"
         d="m 18724,12975 18,-68" />
      <path
         style="fill:none;stroke:#000000;stroke-width:71;stroke-linejoin:round"
         id="path989"
         d="m 18760,12838 19,-69" />
      <path
         style="fill:none;stroke:#000000;stroke-width:71;stroke-linejoin:round"
         id="path991"
         d="m 18797,12701 18,-69" />
      <path
         style="fill:none;stroke:#000000;stroke-width:71;stroke-linejoin:round"
         id="path993"
         d="m 18833,12563 18,-68" />
      <path
         style="fill:none;stroke:#000000;stroke-width:71;stroke-linejoin:round"
         id="path995"
         d="m 18870,12426 11,-43" />
      <path
         style="fill:#000000;stroke:none"
         id="path997"
         d="m 18932,12191 48,233 -206,-54 z" />
    </g>
    <g
       transform="matrix(0.26458333,0,0,0.26458333,-4820.6138,-3245.4873)"
       id="id55"
       style="visibility:hidden">
      <rect
         style="fill:none;stroke:none"
         id="rect1002"
         height="1782"
         width="1290"
         y="12191"
         x="18434"
         class="BoundingBox" />
      <path
         style="fill:none;stroke:#000000;stroke-width:71;stroke-linejoin:round"
         id="path1004"
         d="m 18470,13936 41,-58" />
      <path
         style="fill:none;stroke:#000000;stroke-width:71;stroke-linejoin:round"
         id="path1006"
         d="m 18553,13821 41,-58" />
      <path
         style="fill:none;stroke:#000000;stroke-width:71;stroke-linejoin:round"
         id="path1008"
         d="m 18636,13705 41,-57" />
      <path
         style="fill:none;stroke:#000000;stroke-width:71;stroke-linejoin:round"
         id="path1010"
         d="m 18718,13590 42,-58" />
      <path
         style="fill:none;stroke:#000000;stroke-width:71;stroke-linejoin:round"
         id="path1012"
         d="m 18801,13475 42,-58" />
      <path
         style="fill:none;stroke:#000000;stroke-width:71;stroke-linejoin:round"
         id="path1014"
         d="m 18884,13359 42,-57" />
      <path
         style="fill:none;stroke:#000000;stroke-width:71;stroke-linejoin:round"
         id="path1016"
         d="m 18967,13244 41,-58" />
      <path
         style="fill:none;stroke:#000000;stroke-width:71;stroke-linejoin:round"
         id="path1018"
         d="m 19050,13129 41,-58" />
      <path
         style="fill:none;stroke:#000000;stroke-width:71;stroke-linejoin:round"
         id="path1020"
         d="m 19133,13013 41,-57" />
      <path
         style="fill:none;stroke:#000000;stroke-width:71;stroke-linejoin:round"
         id="path1022"
         d="m 19215,12898 42,-58" />
      <path
         style="fill:none;stroke:#000000;stroke-width:71;stroke-linejoin:round"
         id="path1024"
         d="m 19298,12783 42,-58" />
      <path
         style="fill:none;stroke:#000000;stroke-width:71;stroke-linejoin:round"
         id="path1026"
         d="m 19381,12667 41,-57" />
      <path
         style="fill:none;stroke:#000000;stroke-width:71;stroke-linejoin:round"
         id="path1028"
         d="m 19464,12552 41,-58" />
      <path
         style="fill:none;stroke:#000000;stroke-width:71;stroke-linejoin:round"
         id="path1030"
         d="m 19547,12437 41,-58" />
      <path
         style="fill:#000000;stroke:none"
         id="path1032"
         d="m 19723,12191 -38,235 -173,-124 z" />
    </g>
    <g
       transform="matrix(0.26458333,0,0,0.26458333,-4820.6138,-3245.4873)"
       id="id56"
       style="visibility:hidden">
      <rect
         style="fill:none;stroke:none"
         id="rect1037"
         height="1782"
         width="1564"
         y="12191"
         x="20520"
         class="BoundingBox" />
      <path
         style="fill:none;stroke:#000000;stroke-width:71;stroke-linejoin:round"
         id="path1039"
         d="m 22047,13936 -187,-214" />
      <path
         style="fill:none;stroke:#000000;stroke-width:71;stroke-linejoin:round"
         id="path1041"
         d="m 21720,13562 -187,-214" />
      <path
         style="fill:none;stroke:#000000;stroke-width:71;stroke-linejoin:round"
         id="path1043"
         d="m 21392,13188 -187,-214" />
      <path
         style="fill:none;stroke:#000000;stroke-width:71;stroke-linejoin:round"
         id="path1045"
         d="m 21065,12814 -187,-214" />
      <path
         style="fill:none;stroke:#000000;stroke-width:71;stroke-linejoin:round"
         id="path1047"
         d="m 20738,12440 -87,-99" />
      <path
         style="fill:#000000;stroke:none"
         id="path1049"
         d="m 20520,12191 220,90 -160,140 z" />
    </g>
    <g
       transform="matrix(0.26458333,0,0,0.26458333,-4820.6138,-3245.4873)"
       id="id57"
       style="visibility:hidden">
      <rect
         style="fill:none;stroke:none"
         id="rect1054"
         height="1782"
         width="791"
         y="12191"
         x="21292"
         class="BoundingBox" />
      <path
         style="fill:none;stroke:#000000;stroke-width:71;stroke-linejoin:round"
         id="path1056"
         d="m 22046,13936 -111,-262" />
      <path
         style="fill:none;stroke:#000000;stroke-width:71;stroke-linejoin:round"
         id="path1058"
         d="m 21852,13478 -110,-261" />
      <path
         style="fill:none;stroke:#000000;stroke-width:71;stroke-linejoin:round"
         id="path1060"
         d="m 21659,13021 -111,-262" />
      <path
         style="fill:none;stroke:#000000;stroke-width:71;stroke-linejoin:round"
         id="path1062"
         d="m 21465,12563 -80,-189" />
      <path
         style="fill:#000000;stroke:none"
         id="path1064"
         d="m 21308,12191 181,155 -196,83 z" />
    </g>
    <g
       transform="matrix(0.26458333,0,0,0.26458333,-4820.6138,-3245.4873)"
       id="id58"
       style="visibility:hidden">
      <rect
         style="fill:none;stroke:none"
         id="rect1069"
         height="1782"
         width="215"
         y="12191"
         x="21990"
         class="BoundingBox" />
      <path
         style="fill:none;stroke:#000000;stroke-width:71;stroke-linejoin:round"
         id="path1071"
         d="m 22047,13936 9,-284" />
      <path
         style="fill:none;stroke:#000000;stroke-width:71;stroke-linejoin:round"
         id="path1073"
         d="m 22063,13439 9,-284" />
      <path
         style="fill:none;stroke:#000000;stroke-width:71;stroke-linejoin:round"
         id="path1075"
         d="m 22079,12943 10,-284" />
      <path
         style="fill:none;stroke:#000000;stroke-width:71;stroke-linejoin:round"
         id="path1077"
         d="m 22096,12446 2,-56" />
      <path
         style="fill:#000000;stroke:none"
         id="path1079"
         d="m 22104,12191 99,216 -212,-7 z" />
    </g>
    <g
       transform="matrix(0.26458333,0,0,0.26458333,-4820.6138,-3245.4873)"
       id="id59"
       style="visibility:hidden">
      <rect
         style="fill:none;stroke:none"
         id="rect1084"
         height="1782"
         width="887"
         y="12191"
         x="22012"
         class="BoundingBox" />
      <path
         style="fill:none;stroke:#000000;stroke-width:71;stroke-linejoin:round"
         id="path1086"
         d="m 22048,13936 124,-255" />
      <path
         style="fill:none;stroke:#000000;stroke-width:71;stroke-linejoin:round"
         id="path1088"
         d="m 22265,13489 124,-256" />
      <path
         style="fill:none;stroke:#000000;stroke-width:71;stroke-linejoin:round"
         id="path1090"
         d="m 22482,13042 124,-256" />
      <path
         style="fill:none;stroke:#000000;stroke-width:71;stroke-linejoin:round"
         id="path1092"
         d="m 22699,12595 109,-225" />
      <path
         style="fill:#000000;stroke:none"
         id="path1094"
         d="m 22895,12191 3,238 -192,-93 z" />
    </g>
    <g
       transform="matrix(0.26458333,0,0,0.26458333,-4820.6138,-3245.4873)"
       id="id60"
       style="visibility:hidden">
      <rect
         style="fill:none;stroke:none"
         id="rect1099"
         height="914"
         width="4865"
         y="10322"
         x="18796"
         class="BoundingBox" />
      <text
         id="text1107"
         class="TextShape">
        <tspan
           style="font-weight:400;font-size:635px;font-family:'Noto Sans', sans-serif"
           id="tspan1105"
           font-weight="400"
           font-size="635px"
           class="TextParagraph">
          <tspan
             id="tspan1103"
             y="11082"
             x="18796"
             class="TextPosition">
            <tspan
               style="fill:#000000;stroke:none"
               id="tspan1101">Memory layout</tspan>
          </tspan>
        </tspan>
      </text>
    </g>
  </g>
</svg>
